<svg width="60" height="60" viewBox="0 0 60 60" fill="none" xmlns="http://www.w3.org/2000/svg">
<g clip-path="url(#clip0_121_2180)">
<path d="M51.9145 0H8.08536C3.62016 0 0.000244141 3.61977 0.000244141 8.08512V51.9146C0.000244141 56.3799 3.62002 59.9997 8.08536 59.9997H29.7017L29.7385 38.5591H24.1683C23.4444 38.5591 22.8568 37.9737 22.854 37.2498L22.8273 30.3386C22.8245 29.6108 23.4138 29.0192 24.1417 29.0192H29.7019V22.3413C29.7019 14.5915 34.4349 10.3717 41.3482 10.3717H47.021C47.7468 10.3717 48.3354 10.9602 48.3354 11.6861V17.5137C48.3354 18.2393 47.7473 18.8276 47.0218 18.828L43.5404 18.8297C39.7808 18.8297 39.0528 20.6162 39.0528 23.2381V29.0194H47.314C48.1012 29.0194 48.7119 29.7067 48.6191 30.4885L47.8 37.3997C47.7216 38.0611 47.1608 38.5593 46.4949 38.5593H39.0896L39.0528 60H51.9148C56.38 60 59.9998 56.3802 59.9998 51.915V8.08512C59.9997 3.61977 56.3799 0 51.9145 0Z" fill="#475993"/>
</g>
<defs>
<clipPath id="clip0_121_2180">
<rect width="60" height="60" fill="white"/>
</clipPath>
</defs>
</svg>
