<svg width="60" height="60" viewBox="0 0 60 60" fill="none" xmlns="http://www.w3.org/2000/svg">
<path d="M51.8182 0H8.18182C3.66312 0 0 3.66312 0 8.18182V51.8182C0 56.3369 3.66312 60 8.18182 60H51.8182C56.3369 60 60 56.3369 60 51.8182V8.18182C60 3.66312 56.3369 0 51.8182 0Z" fill="#50ABF1"/>
<path d="M48.6783 18.6512C47.7883 19.9807 46.7048 21.17 45.4635 22.1796C45.3026 22.3076 45.1726 22.4704 45.0835 22.6558C44.9943 22.8412 44.9483 23.0443 44.9488 23.25V23.3762C44.9346 26.0553 44.4428 28.7105 43.4965 31.2171C42.5217 33.8442 41.0739 36.2706 39.2249 38.3762C36.7513 41.196 33.5651 43.2989 29.9999 44.4648C27.6507 45.2272 25.1947 45.6093 22.7249 45.5966C18.8135 45.5926 14.9725 44.5553 11.5908 42.5898C11.4697 42.521 11.3745 42.4144 11.3197 42.2863C11.2649 42.1583 11.2536 42.0158 11.2874 41.8807C11.3217 41.7471 11.3998 41.6288 11.5091 41.5448C11.6185 41.4608 11.7529 41.4158 11.8908 41.4171H12.8249C15.798 41.4166 18.703 40.5274 21.1669 38.8637C19.6982 38.6236 18.3238 37.9838 17.1945 37.0145C16.0652 36.0451 15.2246 34.7836 14.7647 33.3682C14.7421 33.2984 14.7381 33.224 14.753 33.1522C14.7679 33.0804 14.8013 33.0137 14.8497 32.9587C14.8982 32.9036 14.9602 32.8622 15.0296 32.8383C15.0989 32.8145 15.1733 32.8091 15.2454 32.8228C15.6949 32.9082 16.1514 32.9516 16.609 32.9523H16.7794C15.3558 32.2982 14.1523 31.2456 13.3143 29.9218C12.4764 28.598 12.04 27.0598 12.0579 25.4932C12.0588 25.4197 12.0788 25.3477 12.1158 25.2842C12.1528 25.2207 12.2056 25.1679 12.2691 25.1308C12.3326 25.0938 12.4046 25.0738 12.4781 25.0727C12.5516 25.0717 12.6241 25.0897 12.6885 25.125C13.2662 25.4476 13.8857 25.6885 14.5294 25.8409C13.2546 24.5806 12.4341 22.9328 12.1966 21.156C11.9591 19.3791 12.3179 17.5737 13.2169 16.0228C13.2514 15.9656 13.299 15.9174 13.3557 15.8822C13.4123 15.8469 13.4766 15.8256 13.5431 15.82C13.6096 15.8143 13.6765 15.8245 13.7383 15.8497C13.8001 15.8748 13.8551 15.9143 13.8988 15.9648C15.6842 18.1719 17.8949 19.9979 20.3996 21.3343C22.9043 22.6707 25.6519 23.4902 28.4794 23.7443H28.5101C28.552 23.743 28.5932 23.7332 28.6313 23.7156C28.6693 23.6981 28.7035 23.6731 28.7317 23.6421C28.7589 23.6111 28.7793 23.5747 28.7916 23.5354C28.8039 23.4961 28.8079 23.4546 28.8033 23.4137C28.6978 22.4236 28.7623 21.4228 28.9942 20.4546C29.1974 19.6069 29.5433 18.8 30.0169 18.0682C31.011 16.5069 32.5253 15.3476 34.2919 14.7955C35.1206 14.5357 35.9837 14.4024 36.8522 14.4C38.8216 14.3981 40.7238 15.1158 42.201 16.4182C42.3892 16.5855 42.6311 16.6798 42.8829 16.6841C42.9658 16.6827 43.0482 16.6713 43.1283 16.65C44.5171 16.2987 45.8478 15.7487 47.0794 15.0171C47.1536 14.9742 47.2389 14.9547 47.3243 14.9611C47.4097 14.9675 47.4912 14.9994 47.5581 15.0528C47.6251 15.1061 47.6745 15.1784 47.6997 15.2602C47.725 15.342 47.7251 15.4296 47.6999 15.5114C47.2867 16.8017 46.5551 17.9671 45.5726 18.9C46.4588 18.6884 47.3237 18.3963 48.1567 18.0273C48.2407 17.9899 48.3346 17.9809 48.4242 18.0016C48.5137 18.0224 48.5941 18.0718 48.6531 18.1423C48.712 18.2128 48.7464 18.3007 48.751 18.3925C48.7555 18.4843 48.73 18.5751 48.6783 18.6512Z" fill="white"/>
</svg>
