<svg width="60" height="60" viewBox="0 0 60 60" fill="none" xmlns="http://www.w3.org/2000/svg">
<path d="M60.0015 30C60.0015 46.5679 46.5694 60 30 60H29.9438C13.401 59.969 0 46.5458 0 30C0 13.4542 13.401 0.0295698 29.9438 0H30C46.5694 0 60.0015 13.4276 60.0015 30Z" fill="black"/>
<path d="M29.9438 0V60C13.401 59.969 0 46.5458 0 30C0 13.4542 13.401 0.0295698 29.9438 0Z" fill="#0C0C0C"/>
<path d="M46.3239 21.6953L46.2869 27.8414C45.0892 27.8267 43.8977 27.6669 42.7385 27.3653C40.9502 26.8981 39.2635 26.1047 37.7634 25.0248C37.7634 25.6532 37.7723 26.5906 37.7723 27.7305C37.7723 29.2474 37.7723 30.1094 37.7634 31.0245C37.7368 36.6783 37.8773 37.7724 37.3805 40.0078C37.2771 40.5469 37.1358 41.078 36.9576 41.5972C36.0025 44.2585 33.9208 46.3905 31.7992 47.5245C31.2071 47.8392 30.5857 48.0952 29.9437 48.2888C25.934 49.5042 21.1156 48.4367 18.6288 45.4797L18.6126 45.462L18.5933 45.4368C16.4806 42.8879 16.0193 38.9138 15.9749 37.8966C15.9749 37.7664 15.9661 37.6393 15.9661 37.6393C15.9335 36.2498 16.1334 34.8646 16.5575 33.5409C16.9862 32.1718 18.3982 29.3139 21.5695 27.5782C23.5474 26.5127 25.8049 26.0807 28.0364 26.3407L27.964 32.5607C27.8383 32.5282 24.8 31.8081 22.8056 33.878C20.9988 35.7527 21.1156 38.7733 22.3975 40.4839C22.4655 40.5756 22.5379 40.6643 22.6134 40.7471C23.3304 41.5469 24.2397 41.8471 24.8533 42.057C25.6669 42.3251 26.5207 42.4501 27.377 42.4266C28.2943 42.4123 29.1867 42.1257 29.9407 41.6031C32.0254 40.1867 32.3063 37.6644 32.3167 37.521C32.291 29.4012 32.2669 21.2813 32.2442 13.1614V13.1541L36.1519 13.0846H36.2154L36.7817 13.0742C37.1992 14.5769 37.907 15.9833 38.8649 17.214C39.1667 17.5989 39.4926 17.9644 39.8407 18.3081C41.1557 19.588 42.7354 20.564 44.4684 21.1675H44.4802C45.0814 21.3872 45.6975 21.5635 46.3239 21.6953Z" fill="#FD2854"/>
<path d="M44.5571 24.4764H44.5452C42.4408 24.8135 40.2866 24.6499 38.2572 23.9988C36.8402 23.5381 35.51 22.844 34.3215 21.9452C35.0341 26.2528 35.0341 30.6483 34.3215 34.9559C33.4773 40.0182 32.948 43.1911 30.1226 45.221C30.0634 45.2639 30.0028 45.3068 29.9422 45.3467C26.0405 47.9888 20.5893 46.6773 18.5919 45.4339L18.5623 45.4162L18.5061 45.3807C17.8477 44.9445 17.2301 44.4497 16.661 43.9022C15.6406 42.9125 14.8264 41.7304 14.2654 40.4243C13.7043 39.1182 13.4075 37.7139 13.392 36.2924C13.354 34.8201 13.5985 33.3542 14.112 31.9738C14.4447 31.0867 15.6807 27.9316 19.1241 26.011C21.3291 24.802 23.8769 24.3708 26.3569 24.7869C26.347 25.2797 26.3377 25.7725 26.3288 26.2653V26.2757L26.2711 29.3953C25.1919 29.141 24.0763 29.0789 22.9756 29.212C22.0885 29.3214 21.2191 29.4234 20.2951 30.0044C19.1116 30.7662 18.274 31.9616 17.962 33.334C17.7646 33.9987 17.7241 34.7002 17.8437 35.3832C17.8792 35.5783 18.1394 36.9341 19.2335 37.907C19.6017 38.2337 19.7584 38.247 20.2951 38.7482C20.7682 39.1918 20.8865 39.4047 21.3197 39.7728C21.3197 39.7728 21.4261 39.863 21.6006 39.9901C21.6118 39.9998 21.6236 40.0087 21.6361 40.0168C21.8746 40.1912 22.1251 40.3488 22.3857 40.4884C23.4694 41.0561 25.4092 41.1168 26.8315 40.4263C28.7993 39.4697 29.8727 37.2697 29.8683 35.9627C29.8446 27.8399 29.8205 19.7176 29.7958 11.5958H29.9319L35.967 11.5603C35.9627 12.0311 36.028 12.4999 36.1607 12.9516C36.1755 13.0003 36.1903 13.0462 36.2066 13.0994C36.2228 13.1526 36.2332 13.1778 36.2465 13.2147C36.3401 13.4604 36.4482 13.7004 36.5703 13.9333L36.6545 14.1033V14.1166C36.6532 14.1204 36.6532 14.1246 36.6545 14.1284L36.6679 14.1565L36.6812 14.1831C36.6892 14.2003 36.6981 14.2171 36.7078 14.2334C36.7166 14.2526 36.727 14.2718 36.7373 14.2911C36.7935 14.399 36.8704 14.5409 36.9576 14.7006C37.0123 14.7997 37.07 14.8987 37.1291 14.9963L37.1927 15.1013C37.2238 15.1545 37.2563 15.2077 37.2888 15.2595L37.4071 15.4472C37.8669 16.1732 38.6742 17.3959 39.8185 18.3199C41.4271 19.6181 43.2752 19.9847 44.4343 20.0941C44.4417 20.4578 44.4506 20.8216 44.458 21.1853C44.5014 22.2833 44.5344 23.3803 44.5571 24.4764Z" fill="#24F6FA"/>
<path d="M44.5764 26.2136C41.53 26.3254 38.5389 25.3782 36.1121 23.5331V36.5438C36.0825 37.0421 35.6464 42.5376 30.6816 45.5626C30.4362 45.7104 30.1893 45.8479 29.9424 45.9751C25.2718 48.3584 20.7077 46.4911 20.2568 46.2974C19.8084 46.1508 19.3787 45.9523 18.9764 45.706C18.8507 45.6276 18.728 45.5463 18.6112 45.462L18.5063 45.3837C15.4606 43.0713 15.3349 38.3609 15.3157 37.666C15.2831 36.2764 15.483 34.8912 15.9071 33.5676C16.4098 31.9634 17.9104 29.2593 20.9191 27.6049C22.5793 26.7014 24.445 26.243 26.3348 26.2742V26.2846C26.3102 27.8468 26.2856 29.4096 26.2609 30.9729C25.943 30.8871 23.9944 30.3962 22.0901 31.5953C20.9067 32.3571 20.069 33.5525 19.7571 34.9249C19.5704 35.5909 19.53 36.2895 19.6388 36.9726C19.8076 37.816 20.2056 38.5967 20.789 39.2287C21.0343 39.5112 21.3083 39.7674 21.6066 39.9931C21.6178 40.0028 21.6297 40.0117 21.6421 40.0197C21.8764 40.2005 22.1274 40.3584 22.3917 40.4914L22.4006 40.4988C22.9289 41.2966 23.691 41.9115 24.5825 42.2593C25.4739 42.6071 26.4511 42.6707 27.3801 42.4415C27.813 42.3512 28.2334 42.2092 28.6324 42.0186C29.1157 41.7888 29.5586 41.4822 29.9438 41.1109C31.4401 39.6723 31.6589 37.6822 31.6692 37.5625L31.6042 13.1837L32.2547 13.1704L36.1624 13.0935H36.2185C36.2333 13.1319 36.2496 13.1704 36.2659 13.2088C36.356 13.4262 36.464 13.6672 36.5896 13.9274L36.6739 14.0974V14.1107C36.6726 14.1145 36.6726 14.1187 36.6739 14.1225L36.6872 14.1506L36.7005 14.1772C36.7085 14.1944 36.7174 14.2112 36.7271 14.2275C36.736 14.2467 36.7464 14.2659 36.7567 14.2852C36.8247 14.4182 36.9046 14.5557 36.977 14.6947C37.0317 14.7938 37.0894 14.8928 37.1485 14.9904L37.2121 15.0954L37.3082 15.2536L37.4265 15.4413C38.1028 16.4991 38.9133 17.4647 39.8379 18.314C41.1871 19.5494 42.7571 20.5194 44.4655 21.1734H44.4774C44.4966 22.269 44.5158 23.3675 44.5336 24.4631L44.5764 26.2136Z" fill="white"/>
<path opacity="0.17" d="M46.324 21.6953L46.2871 27.8414C45.0894 27.8268 43.8979 27.6669 42.7387 27.3653C40.9504 26.8982 39.2637 26.1047 37.7636 25.0249C37.7636 25.6532 37.7724 26.5906 37.7724 27.7305C37.7724 29.2475 37.7724 30.1094 37.7636 31.0246C37.737 36.6783 37.8774 37.7724 37.3806 40.0079C37.2773 40.547 37.136 41.0781 36.9578 41.5973C36.0027 44.2585 33.921 46.3905 31.7994 47.5245C31.2073 47.8393 30.5858 48.0953 29.9438 48.2889V11.5958L35.979 11.5603C35.9747 12.0311 36.04 12.4999 36.1727 12.9516C36.1875 13.0003 36.2023 13.0462 36.2186 13.0994L36.7848 13.0891C37.2024 14.5917 37.9101 15.9981 38.868 17.2288C39.1698 17.6138 39.4957 17.9792 39.8438 18.3229C41.4524 19.621 43.3005 19.9877 44.4596 20.0971C44.467 20.4608 44.4759 20.8245 44.4833 21.1882C45.084 21.4008 45.6992 21.5702 46.324 21.6953Z" fill="black"/>
</svg>
