<svg width="108" height="10" viewBox="0 0 108 10" fill="none" xmlns="http://www.w3.org/2000/svg">
<g clip-path="url(#clip0_121_2182)">
<path d="M2.98648 8.50314C2.98648 8.9208 3.10759 9.00149 3.37669 9.06919L3.79366 9.16356V9.35215H1.02234V9.16356L1.37214 9.08287C1.64124 9.01558 1.76234 8.88046 1.76234 8.50355V0.336843H1.46634C0.632276 0.336843 0.296 1.69789 0.201793 3.13977H0V0.0674238H4.74883V3.1399H4.54703C4.45283 1.69803 4.11655 0.336981 3.28248 0.336981H2.98648V8.50314ZM5.04483 9.16342L5.34083 9.08246C5.60993 9.01517 5.73103 8.88032 5.73103 8.50314V0.902899C5.73103 0.525574 5.60993 0.404267 5.34083 0.336843L5.04483 0.256017V0.0672856H7.66814V0.256017L7.35876 0.336843C7.10317 0.404267 6.95517 0.512034 6.95517 0.889359V4.43339H8.98662V0.889359C8.98662 0.512034 8.83862 0.404267 8.58303 0.336843L8.27365 0.256017V0.0672856H10.897V0.256017L10.601 0.336843C10.332 0.404267 10.2109 0.525574 10.2109 0.902899V8.48973C10.2109 8.86706 10.332 9.01558 10.601 9.08287L10.897 9.16356V9.35215H8.27352V9.16356L8.5829 9.09641C8.83848 9.02913 8.98648 8.8806 8.98648 8.50355V4.74343H6.95517V8.50314C6.95517 8.88032 7.10317 9.02871 7.35876 9.096L7.66814 9.16342V9.35174H5.04483V9.16342ZM13.1032 9.08273H14.0314C15.2422 9.08273 15.4709 7.70814 15.6323 6.27981H15.8341V9.35187H11.1928V9.16342L11.4888 9.08273C11.7579 9.01531 11.879 8.88032 11.879 8.50327V0.916301C11.879 0.539114 11.7579 0.404267 11.4888 0.336843L11.1928 0.256017V0.0672856H15.6996V3.13977H15.4978C15.3498 1.69789 15.0673 0.336843 14.0314 0.336843H13.1032V4.39305L13.5337 4.37951C14.1121 4.33903 14.3273 3.84053 14.4753 2.66794H14.6771V6.4141H14.4753C14.3543 4.94529 14.1255 4.71621 13.5201 4.67573L13.1032 4.66219V9.08273ZM18.7105 1.30717C18.5356 0.512172 18.428 0.390865 18.1724 0.323441L17.9168 0.256017V0.0672856H20.4326V0.256017L20.2308 0.296361C19.8003 0.390726 19.8406 0.821935 19.9617 1.40139L21.0244 6.6838L21.8047 2.47934L21.5222 1.03733C21.4146 0.525298 21.3742 0.363646 21.1052 0.296223L20.9303 0.255879V0.0671475H23.3923V0.255879L23.0963 0.309763C22.6523 0.390588 22.7196 0.875681 22.8272 1.40125L23.8497 6.68394L24.8586 1.68435C25.0469 0.646743 24.9528 0.390726 24.5492 0.309901L24.2668 0.256017V0.0672856H26.1098V0.256017L25.8542 0.323441C25.5313 0.404267 25.4506 0.660284 25.2622 1.56318L23.621 9.40604H23.2712L22.0066 3.28815L20.863 9.40604H20.419L18.7105 1.30717ZM31.8676 9.08273H32.4057C33.5491 9.08273 33.8855 7.72127 34.02 6.27981H34.2218V9.35187H27.3473V9.16342L27.6298 9.10926C28.2083 9.00177 28.2083 8.84012 28.0603 8.03117L27.8047 6.81837H26.1499L25.975 7.73509C25.7732 8.77269 25.8808 9.02843 26.2846 9.10926L26.567 9.16342V9.35187H24.6971V9.16342L24.9258 9.09613C25.289 8.98837 25.3832 8.77269 25.5716 7.85626L27.2128 0.0132637H27.6164L29.3383 8.11213C29.5132 8.94775 29.5939 9.12252 30.0782 9.12252C30.4952 9.12252 30.6432 8.90685 30.6432 8.503V0.902761C30.6432 0.525436 30.5222 0.404128 30.2531 0.336705L29.9571 0.255879V0.0672856H32.6208V0.269419L32.2575 0.350245C31.9886 0.404128 31.8674 0.525436 31.8674 0.902761L31.8676 9.08273ZM26.2039 6.50861H27.7375L26.9572 2.68175L26.2039 6.50861ZM36.4281 9.08273H36.9662C38.1098 9.08273 38.4461 7.72127 38.5806 6.27981H38.7823V9.35187H34.5178V9.16342L34.8138 9.08273C35.0829 9.01531 35.204 8.88032 35.204 8.50327V0.902899C35.204 0.525574 35.0829 0.404267 34.8138 0.336843L34.5178 0.256017V0.0672856H37.1815V0.269419L36.8183 0.350245C36.5492 0.404128 36.4281 0.525436 36.4281 0.902761V9.08273ZM43.1691 9.40576C42.389 9.40576 42.12 8.86706 41.8644 8.86706C41.7164 8.86706 41.5415 8.9074 41.407 9.35215H41.2457V6.27953H41.4474C41.609 8.01791 42.2548 9.10912 43.156 9.10912C43.7614 9.10912 44.1785 8.55661 44.1785 7.55948C44.1785 5.45718 41.1785 4.55442 41.1785 2.22305C41.1785 0.969908 41.8243 0.0129874 42.9677 0.0129874C43.7076 0.0129874 43.8691 0.49808 44.1785 0.49808C44.3534 0.49808 44.4745 0.36337 44.5417 0.0668712H44.703V3.13935H44.5012C44.3399 1.58971 43.9229 0.309486 42.9541 0.309486C42.2815 0.309486 42.1469 0.983172 42.1469 1.44146C42.1469 3.44939 45.1469 4.13662 45.1469 6.9394C45.1465 8.36843 44.3663 9.40576 43.1691 9.40576ZM48.1197 8.50314C48.1197 8.88032 48.2408 9.01517 48.5099 9.08246L48.8597 9.16342V9.35174H46.1557V9.16342L46.5055 9.08246C46.7746 9.01517 46.8957 8.88032 46.8957 8.50314V0.336843H46.5997C45.7657 0.336843 45.4294 1.69789 45.3352 3.13977H45.1334V0.0674238H49.8825V3.1399H49.6805C49.5863 1.69803 49.2502 0.336981 48.416 0.336981H48.12V8.50314H48.1197ZM50.1781 9.16342L50.4741 9.08246C50.7432 9.01517 50.8643 8.88032 50.8643 8.50314V0.902899C50.8643 0.525574 50.7432 0.404267 50.4741 0.336843L50.1781 0.256017V0.0672856H52.7476C53.8912 0.0672856 54.9539 0.794993 54.9539 2.31769C54.9539 3.49015 54.4023 4.31222 53.2857 4.60872C54.5099 4.83766 54.5099 5.41739 54.631 6.96676L54.7117 8.15262C54.7521 8.8129 54.779 8.96142 54.9674 8.96142C55.1692 8.96142 55.2501 8.50341 55.2501 8.05853V7.82945H55.4786V8.13921C55.4786 8.88046 55.3171 9.4059 54.5505 9.4059C53.797 9.4059 53.4473 8.97469 53.3932 7.42518L53.3262 5.70035C53.2993 4.87828 53.0975 4.75697 52.7073 4.75697H52.075V8.50327C52.075 8.88046 52.1961 9.02885 52.4652 9.09613L52.7612 9.16356V9.35187H50.1782L50.1781 9.16342ZM52.0749 4.48741H52.5189C53.2723 4.48741 53.649 4.28528 53.649 2.49302C53.649 0.700766 53.1512 0.336981 52.6131 0.336981H52.075L52.0749 4.48741ZM57.4695 9.08273H58.3977C59.6083 9.08273 59.8374 7.70814 59.9985 6.27981H60.2003V9.35187H55.559V9.16342L55.855 9.08273C56.124 9.01531 56.2451 8.88032 56.2451 8.50327V0.916301C56.2451 0.539114 56.124 0.404267 55.855 0.336843L55.559 0.256017V0.0672856H60.0659V3.13977H59.864C59.7164 1.69789 59.4337 0.336843 58.3977 0.336843H57.4695V4.39305L57.9 4.37951C58.4782 4.33903 58.6938 3.84053 58.8417 2.66794H59.0436V6.4141H58.8417C58.7204 4.94529 58.492 4.71621 57.8862 4.67573L57.4695 4.66219V9.08273ZM62.4607 9.08273H63.389C64.5993 9.08273 64.8284 7.70814 64.9895 6.27981H65.1913V9.35187H60.5503V9.16342L60.8463 9.08273C61.1153 9.01531 61.2365 8.88032 61.2365 8.50327V0.916301C61.2365 0.539114 61.1153 0.404267 60.8463 0.336843L60.5503 0.256017V0.0672856H65.0571V3.13977H64.8553C64.7073 1.69789 64.4248 0.336843 63.389 0.336843H62.4607V4.39305L62.8912 4.37951C63.4695 4.33903 63.6848 3.84053 63.8328 2.66794H64.0348V6.4141H63.8328C63.7117 4.94529 63.483 4.71621 62.8777 4.67573L62.4607 4.66219V9.08273ZM68.4742 8.50314C68.4742 8.9208 68.5956 9.00149 68.8643 9.06919L69.2812 9.16356V9.35215H66.5099V9.16356L66.8597 9.08287C67.1284 9.01558 67.2499 8.88046 67.2499 8.50355V0.336843H66.9539C66.1199 0.336843 65.7836 1.69789 65.6894 3.13977H65.4876V0.0674238H70.2365V3.1399H70.0348C69.9404 1.69803 69.6043 0.336981 68.7702 0.336981H68.4742V8.50314ZM75.8608 7.20951C75.8608 8.65166 75.1339 9.40576 74.0178 9.40576C73.0091 9.40576 72.4172 8.58396 72.4303 7.68106C72.4439 6.98044 72.955 6.63019 73.372 6.68394C73.668 6.72428 73.964 6.93995 73.9236 7.41164C73.8832 8.08547 73.1564 8.05853 73.1298 8.47619C73.103 8.73235 73.439 9.10954 73.8694 9.10954C74.623 9.10954 74.623 8.15275 74.623 7.42518V0.889359C74.623 0.512034 74.5017 0.404267 74.2061 0.336843L73.8698 0.256017V0.0672856H76.5203V0.256017L76.2243 0.336843C75.9553 0.404267 75.8611 0.525574 75.8611 0.902899L75.8608 7.20951ZM78.9954 9.41944C77.4215 9.41944 76.6545 7.29034 76.6545 4.70281C76.6545 2.1291 77.3945 0 78.9954 0C80.5829 0 81.3496 2.1291 81.3496 4.70281C81.3496 7.29034 80.6233 9.41944 78.9954 9.41944ZM78.9954 0.309901C78.3228 0.309901 77.9868 0.848877 77.9868 4.6492C77.9868 8.57042 78.2959 9.12308 78.9954 9.12308C79.6949 9.12308 80.0178 8.57042 80.0178 4.62198C80.0178 0.849015 79.6949 0.309901 78.9954 0.309901ZM86.6771 9.16342L86.973 9.08246C87.2421 9.01517 87.3632 8.88032 87.3632 8.50314V0.902899C87.3632 0.45815 87.1614 0.296499 86.6905 0.296499C86.0986 0.296499 85.9506 0.566056 85.9506 1.33411V7.18257C85.9506 8.63798 85.4394 9.41944 84.1886 9.41944C82.8971 9.41944 82.1439 8.63798 82.1439 7.22305V0.902899C82.1439 0.525574 82.0495 0.404267 81.7805 0.336843L81.4846 0.256017V0.0672856H84.1617V0.256017L83.7983 0.336843C83.5023 0.404267 83.3814 0.512034 83.3814 0.889359V7.31728C83.3814 8.62444 83.7579 8.96129 84.4441 8.96129C85.2516 8.96129 85.5877 8.50314 85.5877 7.18243V1.8192C85.5877 0.687225 85.5742 0.417668 85.0902 0.309901L84.8345 0.256017V0.0672856H89.2472C90.3906 0.0672856 91.4534 0.794993 91.4534 2.31769C91.4534 3.49015 90.9018 4.31222 89.7851 4.60872C91.0094 4.83766 91.0094 5.41739 91.1305 6.96676L91.2112 8.15262C91.2516 8.8129 91.2782 8.96142 91.4669 8.96142C91.6687 8.96142 91.7495 8.50341 91.7495 8.05853V7.82945H91.9781V8.13921C91.9781 8.88046 91.8167 9.4059 91.0499 9.4059C90.2966 9.4059 89.9468 8.97469 89.8927 7.42518L89.8257 5.70035C89.7988 4.87828 89.597 4.75697 89.2069 4.75697H88.5746V8.50327C88.5746 8.88046 88.6956 9.02885 88.9647 9.09613L89.2607 9.16356V9.35187H86.6775V9.16356H86.6771V9.16342ZM88.5739 4.48741H89.0179C89.7712 4.48741 90.1479 4.28528 90.1479 2.49302C90.1479 0.700766 89.6502 0.336981 89.112 0.336981H88.5739V4.48741ZM92.2197 0.309901L92.0316 0.256017V0.0672856H93.7937L96.2018 6.18517V1.77872C96.2018 0.781591 96.2285 0.431208 95.5156 0.309901L95.287 0.256017V0.0672856H97.2781V0.256017L97.0899 0.309901C96.5116 0.44461 96.552 0.916301 96.552 1.85954V9.35201H96.1215L93.1079 1.9271V7.64072C93.1079 8.73221 93.1079 9.04239 93.9688 9.16342V9.35174H92.0313V9.16342L92.2738 9.12294C92.7712 9.0283 92.7581 8.54348 92.7581 7.55989V1.11843C92.5291 0.646882 92.4349 0.390726 92.2197 0.309901ZM104.058 9.08273H104.596C105.74 9.08273 106.076 7.72127 106.211 6.27981H106.413V9.35187H99.5516V9.16342L99.8341 9.10926C100.413 9.00177 100.426 8.84012 100.265 8.03117L100.009 6.81837H98.3543L98.179 7.73509C97.9772 8.77269 98.085 9.02843 98.4885 9.10926L98.771 9.16342V9.35187H96.901V9.16342L97.1295 9.09613C97.493 8.98837 97.5868 8.77269 97.7755 7.85626L99.4166 0.0134019H99.8204L101.542 8.11227C101.717 8.94789 101.784 9.12266 102.269 9.12266C102.686 9.12266 102.834 8.90699 102.834 8.50314V0.902761C102.834 0.525436 102.713 0.404128 102.444 0.336705L102.148 0.255879V0.0672856H104.812V0.269419L104.448 0.350245C104.179 0.404128 104.058 0.525436 104.058 0.902761L104.058 9.08273ZM98.408 6.50861H99.9417L99.1615 2.68162L98.408 6.50861ZM108 8.75902C108 9.12294 107.731 9.3925 107.408 9.3925C107.085 9.3925 106.816 9.12294 106.816 8.75902C106.816 8.39523 107.085 8.12567 107.408 8.12567C107.731 8.12567 108 8.39537 108 8.75902Z" fill="black"/>
</g>
<defs>
<clipPath id="clip0_121_2182">
<rect width="108" height="10" fill="white"/>
</clipPath>
</defs>
</svg>
