<svg width="60" height="60" viewBox="0 0 60 60" fill="none" xmlns="http://www.w3.org/2000/svg">
<path d="M51.8182 0H8.18182C3.66312 0 0 3.66312 0 8.18182V51.8182C0 56.3369 3.66312 60 8.18182 60H51.8182C56.3369 60 60 56.3369 60 51.8182V8.18182C60 3.66312 56.3369 0 51.8182 0Z" fill="#0077B5"/>
<path d="M21.6138 16.3636C21.6138 17.375 21.3138 18.3637 20.7519 19.2046C20.1901 20.0456 19.3914 20.701 18.457 21.088C17.5226 21.4751 16.4944 21.5763 15.5025 21.379C14.5105 21.1817 13.5994 20.6947 12.8842 19.9795C12.1691 19.2644 11.682 18.3532 11.4847 17.3613C11.2874 16.3693 11.3887 15.3411 11.7757 14.4067C12.1628 13.4723 12.8182 12.6737 13.6591 12.1118C14.5001 11.5499 15.4887 11.25 16.5001 11.25C17.8563 11.25 19.157 11.7888 20.116 12.7477C21.075 13.7067 21.6138 15.0074 21.6138 16.3636Z" fill="white"/>
<path d="M20.4547 24.8863V47.4784C20.4556 47.6451 20.4236 47.8103 20.3604 47.9645C20.2972 48.1187 20.2042 48.259 20.0867 48.3771C19.9692 48.4953 19.8294 48.5891 19.6755 48.6531C19.5216 48.717 19.3566 48.75 19.1899 48.75H13.8002C13.6335 48.7504 13.4684 48.7179 13.3143 48.6544C13.1603 48.5908 13.0203 48.4974 12.9024 48.3795C12.7846 48.2617 12.6912 48.1217 12.6276 47.9676C12.564 47.8136 12.5315 47.6485 12.532 47.4818V24.8863C12.532 24.55 12.6656 24.2274 12.9034 23.9896C13.1413 23.7518 13.4638 23.6182 13.8002 23.6182H19.1899C19.5257 23.6191 19.8474 23.7531 20.0845 23.9908C20.3216 24.2285 20.4547 24.5506 20.4547 24.8863Z" fill="white"/>
<path d="M48.6273 36.6477V47.5841C48.6278 47.7373 48.5979 47.8891 48.5395 48.0308C48.4811 48.1724 48.3952 48.3011 48.2869 48.4095C48.1785 48.5179 48.0498 48.6037 47.9081 48.6621C47.7665 48.7206 47.6147 48.7504 47.4614 48.75H41.666C41.5127 48.7504 41.3609 48.7206 41.2193 48.6621C41.0776 48.6037 40.9489 48.5179 40.8406 48.4095C40.7322 48.3011 40.6463 48.1724 40.5879 48.0308C40.5295 47.8891 40.4996 47.7373 40.5001 47.5841V36.9852C40.5001 35.4034 40.9637 30.0579 36.3648 30.0579C32.8023 30.0579 32.0762 33.7159 31.933 35.3591V47.5841C31.9331 47.8904 31.8126 48.1844 31.5976 48.4025C31.3826 48.6207 31.0904 48.7455 30.7842 48.75H25.1864C25.0335 48.75 24.882 48.7198 24.7408 48.6612C24.5995 48.6025 24.4712 48.5166 24.3632 48.4083C24.2552 48.3 24.1697 48.1714 24.1114 48.03C24.0532 47.8886 24.0235 47.737 24.0239 47.5841V24.7875C24.0235 24.6345 24.0532 24.483 24.1114 24.3416C24.1697 24.2001 24.2552 24.0716 24.3632 23.9633C24.4712 23.855 24.5995 23.769 24.7408 23.7104C24.882 23.6518 25.0335 23.6216 25.1864 23.6216H30.7842C31.0934 23.6216 31.3899 23.7444 31.6086 23.9631C31.8272 24.1817 31.9501 24.4783 31.9501 24.7875V26.7579C33.2728 24.7738 35.233 23.2432 39.416 23.2432C48.6819 23.2432 48.6273 31.8954 48.6273 36.6477Z" fill="white"/>
</svg>
