<svg width="73" height="31" viewBox="0 0 73 31" fill="none" xmlns="http://www.w3.org/2000/svg">
<path d="M0.556818 24V0.727272H4.06818V20.9773H14.6136V24H0.556818ZM25.6989 24.3523C24.0625 24.3523 22.6345 23.9773 21.4148 23.2273C20.1951 22.4773 19.2481 21.428 18.5739 20.0795C17.8996 18.7311 17.5625 17.1553 17.5625 15.3523C17.5625 13.5417 17.8996 11.9583 18.5739 10.6023C19.2481 9.24621 20.1951 8.19318 21.4148 7.44318C22.6345 6.69318 24.0625 6.31818 25.6989 6.31818C27.3352 6.31818 28.7633 6.69318 29.983 7.44318C31.2027 8.19318 32.1496 9.24621 32.8239 10.6023C33.4981 11.9583 33.8352 13.5417 33.8352 15.3523C33.8352 17.1553 33.4981 18.7311 32.8239 20.0795C32.1496 21.428 31.2027 22.4773 29.983 23.2273C28.7633 23.9773 27.3352 24.3523 25.6989 24.3523ZM25.7102 21.5C26.7708 21.5 27.6496 21.2197 28.3466 20.6591C29.0436 20.0985 29.5587 19.3523 29.892 18.4205C30.233 17.4886 30.4034 16.4621 30.4034 15.3409C30.4034 14.2273 30.233 13.2045 29.892 12.2727C29.5587 11.3333 29.0436 10.5795 28.3466 10.0114C27.6496 9.44318 26.7708 9.15909 25.7102 9.15909C24.642 9.15909 23.7557 9.44318 23.0511 10.0114C22.3542 10.5795 21.8352 11.3333 21.4943 12.2727C21.161 13.2045 20.9943 14.2273 20.9943 15.3409C20.9943 16.4621 21.161 17.4886 21.4943 18.4205C21.8352 19.3523 22.3542 20.0985 23.0511 20.6591C23.7557 21.2197 24.642 21.5 25.7102 21.5ZM44.946 30.9091C43.5597 30.9091 42.3665 30.7273 41.3665 30.3636C40.3741 30 39.5634 29.5189 38.9347 28.9205C38.3059 28.322 37.8362 27.6667 37.5256 26.9545L40.446 25.75C40.6506 26.0833 40.9233 26.4356 41.2642 26.8068C41.6127 27.1856 42.0824 27.5076 42.6733 27.7727C43.2718 28.0379 44.0407 28.1705 44.9801 28.1705C46.268 28.1705 47.3324 27.8561 48.1733 27.2273C49.0142 26.6061 49.4347 25.6136 49.4347 24.25V20.8182H49.2188C49.0142 21.1894 48.7188 21.6023 48.3324 22.0568C47.9536 22.5114 47.4309 22.9053 46.7642 23.2386C46.0975 23.572 45.2301 23.7386 44.1619 23.7386C42.7831 23.7386 41.5407 23.4167 40.4347 22.7727C39.3362 22.1212 38.465 21.1629 37.821 19.8977C37.1847 18.625 36.8665 17.0606 36.8665 15.2045C36.8665 13.3485 37.1809 11.7576 37.8097 10.4318C38.446 9.10606 39.3172 8.09091 40.4233 7.38636C41.5294 6.67424 42.7831 6.31818 44.1847 6.31818C45.268 6.31818 46.143 6.5 46.8097 6.86364C47.4763 7.2197 47.9953 7.63636 48.3665 8.11364C48.7453 8.59091 49.0369 9.01136 49.2415 9.375H49.4915V6.54545H52.821V24.3864C52.821 25.8864 52.4725 27.1174 51.7756 28.0795C51.0786 29.0417 50.1354 29.7538 48.946 30.2159C47.7642 30.678 46.4309 30.9091 44.946 30.9091ZM44.9119 20.9205C45.8892 20.9205 46.715 20.6932 47.3892 20.2386C48.071 19.7765 48.5862 19.1174 48.9347 18.2614C49.2907 17.3977 49.4688 16.3636 49.4688 15.1591C49.4688 13.9848 49.2945 12.9508 48.946 12.0568C48.5975 11.1629 48.0862 10.4659 47.4119 9.96591C46.7377 9.45833 45.9044 9.20455 44.9119 9.20455C43.8892 9.20455 43.0369 9.4697 42.3551 10C41.6733 10.5227 41.1581 11.2348 40.8097 12.1364C40.4688 13.0379 40.2983 14.0455 40.2983 15.1591C40.2983 16.303 40.4725 17.3068 40.821 18.1705C41.1695 19.0341 41.6847 19.7083 42.3665 20.1932C43.0559 20.678 43.9044 20.9205 44.9119 20.9205ZM64.7301 24.3523C63.0938 24.3523 61.6657 23.9773 60.446 23.2273C59.2263 22.4773 58.2794 21.428 57.6051 20.0795C56.9309 18.7311 56.5938 17.1553 56.5938 15.3523C56.5938 13.5417 56.9309 11.9583 57.6051 10.6023C58.2794 9.24621 59.2263 8.19318 60.446 7.44318C61.6657 6.69318 63.0938 6.31818 64.7301 6.31818C66.3665 6.31818 67.7945 6.69318 69.0142 7.44318C70.2339 8.19318 71.1809 9.24621 71.8551 10.6023C72.5294 11.9583 72.8665 13.5417 72.8665 15.3523C72.8665 17.1553 72.5294 18.7311 71.8551 20.0795C71.1809 21.428 70.2339 22.4773 69.0142 23.2273C67.7945 23.9773 66.3665 24.3523 64.7301 24.3523ZM64.7415 21.5C65.8021 21.5 66.6809 21.2197 67.3778 20.6591C68.0748 20.0985 68.59 19.3523 68.9233 18.4205C69.2642 17.4886 69.4347 16.4621 69.4347 15.3409C69.4347 14.2273 69.2642 13.2045 68.9233 12.2727C68.59 11.3333 68.0748 10.5795 67.3778 10.0114C66.6809 9.44318 65.8021 9.15909 64.7415 9.15909C63.6733 9.15909 62.7869 9.44318 62.0824 10.0114C61.3854 10.5795 60.8665 11.3333 60.5256 12.2727C60.1922 13.2045 60.0256 14.2273 60.0256 15.3409C60.0256 16.4621 60.1922 17.4886 60.5256 18.4205C60.8665 19.3523 61.3854 20.0985 62.0824 20.6591C62.7869 21.2197 63.6733 21.5 64.7415 21.5Z" fill="#003D98"/>
</svg>
